<?xml version="1.0" encoding="utf-8"?>
<svg version="1.1" id="info" xmlns="http://www.w3.org/2000/svg" xmlns:xlink="http://www.w3.org/1999/xlink" x="0px" y="0px"
	 viewBox="0 0 70 70" xml:space="preserve">
<g id="info">
	<path fill="#09c" d="M35,3.5C17.6,3.5,3.5,17.6,3.5,35S17.6,66.5,35,66.5c17.4,0,31.5-14.1,31.5-31.5S52.4,3.5,35,3.5z"/>
	<path fill="#fff" d="M36,19.8c2.8,0,5,2.3,5,5c0,2.8-2.2,5-5,5c-2.8,0-5-2.3-5-5C31,22.1,33.2,19.8,36,19.8z M41.4,47.2
	c-0.1,0.1-2.6,3-6.7,3c-0.2,0-0.3,0-0.5,0c-1.6-0.1-3-0.8-3.8-2.1c-1-1.5-1.2-3.6-0.4-5.9l1.3-4c0.7-2.2,0-2.6-0.3-2.8
	c-0.1-0.1-0.3-0.1-0.5-0.1c-0.8,0-1.9,0.5-2.3,0.7c-0.3,0.2-0.8,0.1-1-0.2c-0.2-0.3-0.2-0.7,0-1c0.1-0.1,2.8-3.2,7.2-3
	c1.6,0.1,3,0.8,3.8,2c1,1.5,1.2,3.6,0.4,5.9l-1.3,4c-0.7,2.2,0,2.6,0.3,2.8c0.1,0,0.2,0.1,0.4,0.1c0.8,0,1.9-0.5,2.3-0.7
	c0.3-0.2,0.8-0.1,1,0.2C41.7,46.5,41.7,46.9,41.4,47.2z"/>
</g>
</svg>
