<?xml version="1.0" ?>
<!DOCTYPE svg PUBLIC '-//W3C//DTD SVG 1.1//EN' 'http://www.w3.org/Graphics/SVG/1.1/DTD/svg11.dtd'><svg
  enable-background="new 0 0 70 70" height="70px" id="Icons" version="1.1" viewBox="0 0 70 70" width="70px"
  xml:space="preserve" xmlns="http://www.w3.org/2000/svg" xmlns:xlink="http://www.w3.org/1999/xlink">
    <path fill="#777" d="M27.737,53.813c-3.473,0-6.737-1.352-9.192-3.808c-5.069-5.068-5.069-13.316,0-18.385l14.849-14.849l2.828,2.828   L21.373,34.449c-3.509,3.51-3.509,9.219,0,12.729c1.7,1.7,3.96,2.636,6.364,2.636s4.664-0.936,6.364-2.636l15.547-15.547   c1.042-1.041,1.615-2.426,1.615-3.898s-0.573-2.857-1.615-3.899c-2.146-2.145-5.636-2.148-7.788-0.01l0,0.001l-14.849,14.85   c-0.382,0.383-0.593,0.892-0.593,1.433s0.211,1.05,0.593,1.433c0.79,0.789,2.075,0.789,2.865,0L44.726,26.69l2.828,2.828   L32.705,44.367c-2.349,2.35-6.172,2.35-8.521,0c-1.138-1.138-1.765-2.651-1.765-4.261s0.627-3.123,1.765-4.261l14.839-14.841h0   c3.709-3.708,9.745-3.709,13.454,0c1.797,1.797,2.787,4.187,2.787,6.728s-0.99,4.931-2.787,6.727L36.929,50.006   C34.474,52.461,31.209,53.813,27.737,53.813z" />
</svg>